<?xml version="1.0" encoding="UTF-8"?>
<svg id="Layer_1" xmlns="http://www.w3.org/2000/svg" version="1.1" viewBox="0 0 1047.95 657.36">
  <!-- Generator: Adobe Illustrator 29.5.0, SVG Export Plug-In . SVG Version: 2.1.0 Build 137)  -->
  <path d="M166.13,266.65c3.14,3.13,42.3-13.08,49.21-15.25,12.27-3.85,26.97-8.51,39.33-11.46,9.55-2.28,31.33-7.76,39.82-4.64,9.38,3.45,28.46,36.75,26.31,45.95-.16.67-4.43,9.89-4.88,10.48-2.66,3.58-47.14,16.28-56.01,19.86-9.38,3.78-18.3,9.3-27.41,12.96-27.58,11.06-65.37,21.48-90.5,34.5-9.95,5.16-11.12,11.74-14.95,21.51-19.82,50.57-43.76,116.05-55.33,168.64-2.12,9.62-6.89,48.92-12.89,53.52-9.99,7.66-35.97-16.72-42.4-24.25-22.69-26.55-17.11-60.96-11.15-93.11,7.53-40.67,21.56-80.15,34.51-119.26,1.1-13.53-31.87-30.4-17.36-41.98,8.15-6.5,37.25-14.99,41.98-21.83,2.81-4.06,4.62-17.42,6.63-23.32,6.55-19.22,20.55-45.87,24.2-64.34.61-3.08.83-6.06.58-9.18-16.87,3.32-31.73,7.3-48.22-.6-8.25-3.95-28.15-20.2-33.78-27.43-14.17-18.2-4.76-22.11,11.29-31.62,41.76-24.76,105.82-46.86,152.76-60.8,21.91-6.51,74.62-23.74,94.57-25.3,5.11-.4,9.06,1.51,14.11,1.23,20.91-1.15,38.1-11.03,62.44-7.72,10.6,1.44,21.89,18.14,27.87,26.82,6.06,8.81,16.88,24.54,15.86,34.92-1,10.29-5.56,9.81-14.27,11.76-52.93,11.9-111.36,20.19-162.53,39.3-2.27.85-5.39,1.74-7.26,3.16-6.09,4.6-12.43,27.44-16.23,35.86-5.07,11.23-11.19,22.03-16.08,33.4-1.63,3.8-11.85,26.57-10.19,28.22Z"/>
  <path d="M823.42,347.71c-1.84-1.24-4.38-2.02-6.56-1.44-4.13,1.1-46.38,58.42-53.06,66.84-7.62,9.62-16.33,18.47-23.95,28.14-4.46,5.67-7.9,13.33-12.51,18.74-12.57,14.72-40.87,21.96-58.19,12.67-8.48-4.55-20.84-17.74-15.8-28.06,14.77-18.62,26.55-39.3,40.4-58.56,31.64-43.98,69.07-83.75,98.46-129.44-1.65-22.81-12.81-44.14-18.9-66.5-7.27-26.7-16.17-62.14-17.29-89.49-.45-11.02-2.98-25.72,11.14-27.9,10.38-1.6,37.76-.23,48.02,2.6,19.1,5.28,16.71,29.33,19.15,44.66,3.4,21.42,6.25,43.22,10.55,64.32l5.42,1.41c35.48-40.33,67.4-83.57,101.07-125.41,4.18-5.2,10.01-10.42,14.26-15.69,9.09-11.3,19.99-30.34,29.47-39.55,7.09-6.88,12.7-5.93,21.22-1.97,10.92,5.08,30.1,29.64,31.37,41.54,2.61,24.44-15.34,35.56-28.61,52.13-17.94,22.4-35.47,45.13-54.05,67.05-26.27,30.99-67.19,69.31-86.93,103.19-6.23,10.7-2.55,17.48.68,28.59,7.87,27.11,21.69,57.65,34.11,83.08,9.04,18.52,28.43,40.64,16.55,62.07-7.25,13.08-23.17,29.31-39.39,25.86-16.73-3.55-32.98-35.32-40.11-49.73-10.86-21.97-21.23-45.17-26.54-69.16Z"/>
  <path d="M725.31,51.26c7.69,9,15.45,26.37,6.47,36.87-9.88,11.56-56.86,18.22-73.71,22.65-9.65,2.54-30.35,5.9-35.13,14.35-3.88,6.85-25.3,64.37-25.79,70.6-.12,1.51-.03,3.03,0,4.53,15.12-1.44,29.97-5.39,45.09-7.66,11.13-1.67,26.91-4.5,37.62-5.34,9.05-.71,25.88,5.55,33.14,11.09,2.99,2.28-.19.76-1.3,3.9-.25.69.36,2.06-.19,2.96-1.15,1.89-22.61,11.63-25.84,15.2-5.09,5.63.12,8.62-.18,14.73-2.24,3.25-48.84,18.71-56.42,21.14-14.68,4.71-30.24,7.85-44.65,12.65-9.53,3.18-13.81,2.84-18.77,12.48-5.76,11.2-20.25,58.76-20.64,70.63-.08,2.45-.22,5.71,3,5.56,25.73-6.9,50.34-19.47,75.47-27.46,10.21-3.25,39.24-11.68,48.54-11.46,9.09.21,13.67,6.1,17.8,13.52,4.79,8.62,6.12,11.44,1.31,20.02-11.82,21.09-80.84,52.7-104.84,63.14-15.64,6.8-39.09,18.82-55.89,16.36-26.38-3.87-52.18-46.98-51.8-71.88.45-29.75,10.8-62.95,19.93-90.83,12.64-38.61,29.33-76.71,46.28-113.89,5.66-12.41,18.95-28.04,14.84-41.73-4.38-14.57-30.39-31.67-9.84-45.72,20.75-14.19,97.34-30.5,123.44-31.52,18.3-.72,39.4.35,52.04,15.13Z"/>
  <path d="M503.05,74.83c.61-.26-.31-3.44,2.94-2.19.53,23.29-5.46,47.35-13.69,68.98-23.42,61.55-60.79,126.82-88.1,187.96-10.63,23.8-22.19,49.67-31.63,73.84-2.16,5.53-5.6,13-5.92,18.85-.17,3.12,1.91,2.22,4.27,1.64,20.11-4.94,43.26-17.22,64.09-23.16,8.09-2.31,13.14-4.33,21.37-.5,8.29,3.86,28.73,25.89,33.56,34.16,1.75,3,2.05,6.54,4.34,9.32-1.78-.07-3.5.08-5.21.66-57.73,19.77-113.31,51.06-167.63,78.49-5.94,2.15-15.78,2.79-21.54,0-1.69-.82-21.42-21.53-23.75-24.43-4.75-5.9-12.72-20.74-13.56-28.13-1.43-12.63,8.79-23.01,14.04-33.92,52.45-109.1,97.13-222.19,159.3-326.41,5.75-9.63,14.97-24.28,21.92-32.78,2.5-3.06,15.86-16.76,18.54-17.93,10.44-4.57,12.61,12.38,17.86,17.98.41.19,7.72-1.98,8.8-2.45Z"/>
  <path d="M791.15,532.27c-.21.32-4.1,1.51-4.4,5.37l-118.7,5.02c-146.98,10.38-287.1,51.76-419.37,114.62-3.91.46-7.97-.97-11.39-2.78-13.06-6.92-29.34-26.86-29.42-42.28-.06-11.69,25.48-23.85,35.01-28.53,22.64-11.11,49.18-19.29,73.28-26.98,123.39-39.37,265.23-68.55,394.89-54.33,17.29,1.9,61.8,7.13,72.95,19.5,1.04,1.15,7.48,9.87,7.13,10.4Z"/>
</svg>