<?xml version="1.0" encoding="UTF-8"?>
<svg id="Layer_1" xmlns="http://www.w3.org/2000/svg" version="1.1" viewBox="0 0 2536.06 337.49">
  <!-- Generator: Adobe Illustrator 29.5.0, SVG Export Plug-In . SVG Version: 2.1.0 Build 137)  -->
  <defs>
    <style>
      .st0 {
        fill: #fff;
      }
    </style>
  </defs>
  <g>
    <path class="st0" d="M2060.59,104.14h-98.65v-14.51c0-.55-2.36-5.3-2.95-6.16-7.8-11.37-29.22-10.17-41.43-10.8-34.24-1.76-68.62-.72-102.77.79-19,.84-48.35-2.13-54.58,21.68-5.91,22.57,7.84,33.39,28.86,34.73,21.29,1.36,46.32.58,67.98.83,41.33.47,84.21-1.44,125.2,1.63,70.37,5.28,86.68,36.97,78.24,104.75-11.3,90.71-64.27,94.55-142.88,98.35-53.96,2.6-107.53,2.59-161.62.79-28.1-.94-56.2-.96-82.25-13.09-36.03-16.78-31.4-59.28-26.64-92.42l1.09-1.4h98.23v17.82c0,1.26,1.8,5.98,2.62,7.32,4.98,8.13,17.26,9.56,25.98,10.49,41.97,4.5,105.46,3.77,147.54-.83,17.84-1.95,35.69-6.15,37.72-26.94,3.44-35.26-28.65-30.34-52.67-31.05-50.14-1.47-100.78.4-150.85-1.68-66.18-2.75-102.93-11.49-99.09-87.5,3.94-78.04,35.09-105.11,110.71-113.12,53.32-5.65,112.87-3.77,166.58-2.46,39.84.97,108.27-3.51,123.72,43.73,6.11,18.66,3.33,39.82,1.9,59.03Z"/>
    <path class="st0" d="M752.27,334.98l-1.11-1.37L786.32,2.51l287.62.02c37.66.59,81.56,5.82,96.56,46.02,12.88,34.5,3.17,112.08-11.24,146.31-20.93,49.73-60.77,56.53-110.19,58.09l-188.1.08-1.36,1.95c-2.94,25.02-4.2,50.4-7.55,75.36-.22,1.6-.79,4.64-2.8,4.64h-96.99ZM879.21,83.09l-1.22,1.27-8.9,87.37,1.01.65c54.1-.21,108.32,1.06,162.35-.72,12.56-1.29,24.79-3.72,32.75-14.5,9.01-12.2,11.65-45.75,5.39-59.27-6.74-14.53-28.01-13.26-41.41-14.96l-149.97.15Z"/>
    <path class="st0" d="M1315.6,1.12l-20.72,200.21c-.2,32.02,5.02,46.67,37.95,52.39,34.44,5.98,94.34,4.17,129.9,1.06,43.45-3.8,50.81-20.56,56.67-61.04,8.72-60.22,11.52-122.58,19.19-183.08.39-3.04.5-7.4,2.07-9.54h99.89v7.04c-9.17,67.07-12.18,135.16-21.67,202.16-6,42.4-14.8,79.31-53.51,103.17-34.94,21.53-76.89,21.84-116.69,22.58s-78.72.08-117.72-.9c-67.06-1.69-134.8-3.13-138.92-87.39,2.67-74.2,11.7-148.38,19.94-222.19.78-7.01,1.27-15.68,2.49-22.38.17-.94.39-1.55,1.24-2.08h99.89Z"/>
    <polygon class="st0" points="2436.27 2.54 2423.08 128.46 2199.69 128.46 2212.87 2.54 2113.09 2.54 2078.27 334.96 2178.06 334.96 2191.25 209.04 2414.64 209.04 2401.45 334.96 2501.24 334.96 2536.06 2.54 2436.27 2.54"/>
  </g>
  <polygon class="st0" points="451.26 3 291.05 3 479.31 169.38 256.05 335.77 416.26 335.77 639.53 169.38 451.26 3"/>
  <polygon class="st0" points="195.22 3 35 3 223.27 169.38 0 335.77 160.22 335.77 383.48 169.38 195.22 3"/>
</svg>