<?xml version="1.0" encoding="UTF-8"?>
<svg id="Layer_1" xmlns="http://www.w3.org/2000/svg" version="1.1" viewBox="0 0 1627.97 386.44">
  <!-- Generator: Adobe Illustrator 29.5.0, SVG Export Plug-In . SVG Version: 2.1.0 Build 137)  -->
  <defs>
    <style>
      .st0 {
        fill: #fff;
      }
    </style>
  </defs>
  <path class="st0" d="M1075.08,10.03v133.99h-116.51V4.2h-90.88v377.5h90.88v-153.8h116.51v153.8h88.55V4.2h-90.88c-.87,2.51,2.33,5.11,2.33,5.83Z"/>
  <path class="st0" d="M821.69,187.89c-44.53-22.61-101.51-37.3-147.29-58.44-17.8-6.57-18.68-44.4-1.87-49.62,9.61-2.99,75.89-2.33,88.62-1.16,23.14,2.13,20.6,18.32,22.03,37.39h83.89v-47.77c0-25.98-22.65-50.44-45.97-58.9-30.58-11.08-135.71-10.7-170.31-7.23-23.13,2.32-43.41,11.45-57.25,26.67-1.62,1.49-3.36,3.62-5.26,6.5-.03.04-.06.09-.08.13-2.26,3.18-4.27,6.58-6.01,10.19-4.42,8.4-7.36,16.51-9.29,24.08-.16-17.11-.07-33.99.48-50.48.18-5.21,2.38-9.88,2.44-15.04h-93.21c-.62,1.71,2.33,2.79,2.33,3.5v284.29c0,4.93-8.72,14.88-13.86,16.43-8.24,2.49-67.9,2.51-78.05.91-5.69-.9-17.61-10.03-17.61-15.01V4.2h-93.21v91.85c-1.01-17.78-2.8-33-5.43-41.23-8.6-26.9-39.77-50.63-68.22-50.63H0v377.5h90.88v-118.84h96.71c9.29,0,27.79-4.09,37.32-6.95,26.1-7.83,47.1-26.48,53.63-53.56,1.65-6.84,2.88-18.12,3.66-31.54v135.16c0,38.71,42.49,73.08,78.72,77.41,32.02,3.83,104.27,3.74,136.55.36,41.55-4.34,72.23-33.48,75.98-75.48.88-9.86,1.52-19.91,1.99-30.08v30.12c0,38.7,35.18,70.19,71.68,75.13,31.82,4.31,108.61,3.51,141.51.57,71.55-6.4,82.7-66.74,78.19-127.05-2.58-34.51-14.79-53.65-45.13-69.06ZM195.25,168c-1.36,6.09-11.24,15.64-16.99,15.64h-87.39v-102.53h87.39c1.44,0,12.32,7.15,13.94,9.37,3.22,4.39,3.19,7.58,3.65,12.66,1.12,12.48,1.81,54.06-.6,64.87ZM768.27,307.72c-7.98,3.4-69.86,2.87-82.23,1.84-27.38-2.28-17.72-17.54-20.59-38.62l-2.62-3.41h-86.96c1.45-43.43-.16-89.13-1.53-134.46,3.07,22.57,11.57,43.21,31.45,55.68,41.28,25.91,112.68,39.03,156.96,62.75,20.59,11.03,23.98,48.35,5.52,56.22Z"/>
  <path class="st0" d="M1253.84,379.71s-.31-.36-.87-1.02v1.05h375V6.68l-374.13,373.02ZM1539.42,292.45h-72.14l72.14-71.93v71.93Z"/>
</svg>