<?xml version="1.0" encoding="UTF-8"?>
<svg id="Layer_1" xmlns="http://www.w3.org/2000/svg" version="1.1" viewBox="0 0 24 24">
  <!-- Generator: Adobe Illustrator 29.6.0, SVG Export Plug-In . SVG Version: 2.1.1 Build 207)  -->
  <defs>
    <style>
      .st0 {
        fill: #fff;
      }
    </style>
  </defs>
  <path class="st0" d="M12.15,6.9c-.95,0-2.41-1.08-3.96-1.04-2.04.03-3.91,1.18-4.96,3.01-2.12,3.68-.55,9.1,1.52,12.09,1.01,1.45,2.21,3.09,3.79,3.04,1.52-.07,2.09-.99,3.94-.99s2.35.99,3.96.95c1.64-.03,2.68-1.48,3.68-2.95,1.16-1.69,1.64-3.33,1.66-3.41-.04-.01-3.18-1.22-3.22-4.86-.03-3.04,2.48-4.49,2.6-4.56-1.43-2.09-3.62-2.32-4.39-2.38-2-.16-3.68,1.09-4.61,1.09h0ZM15.53,3.83c.84-1.01,1.4-2.43,1.24-3.83-1.21.05-2.66.81-3.53,1.82-.78.9-1.45,2.34-1.27,3.71,1.34.1,2.72-.69,3.56-1.7"/>
</svg>