<?xml version="1.0" encoding="UTF-8"?>
<svg id="Layer_1" xmlns="http://www.w3.org/2000/svg" version="1.1" viewBox="0 0 24 24">
  <!-- Generator: Adobe Illustrator 29.6.0, SVG Export Plug-In . SVG Version: 2.1.1 Build 207)  -->
  <defs>
    <style>
      .st0 {
        fill: #fff;
      }
    </style>
  </defs>
  <path class="st0" d="M12.48,10.92v3.28h7.84c-.24,1.84-.85,3.19-1.79,4.13-1.15,1.15-2.93,2.4-6.05,2.4-4.83,0-8.6-3.89-8.6-8.72S7.65,3.29,12.48,3.29c2.6,0,4.51,1.03,5.91,2.35l2.31-2.31c-1.95-1.89-4.56-3.33-8.21-3.33C5.87,0,.31,5.39.31,12s5.56,12,12.17,12c3.57,0,6.27-1.17,8.37-3.36,2.16-2.16,2.84-5.21,2.84-7.67,0-.76-.05-1.47-.17-2.05h-11.04Z"/>
</svg>